# xmcd
#
# Track frame offsets: 
#        150
#        17882
#        37160
#
# Disc length: 730 seconds
#
# Revision: 5
# Processed by: cddbd v1.5.2PL0 Copyright (c) Steve Scherf et al.
# Submitted via: ExactAudioCopyFreeDBPlugin 1.0
#
DISCID=2102d803
DTITLE=Eric Clapton - Change the World
DYEAR=1996
DGENRE=Rock
TTITLE0=Change The World (LP-Version)
TTITLE1=Danny Boy (Non-LP Track)
TTITLE2=Change The World (Instrumental)
EXTD=Year: 1996\n\nMaxi-CD\n\nFrom the Motion Picture Phenomenon
EXTT0=
EXTT1=
EXTT2=
PLAYORDER=
